# xmcd CD database file
#
# Track frame offsets:
#	180
#	12284
#	21750
#	32850
#	43287
#	55620
#	66959
#	79417
#
# Disc length: 1204 seconds
#
# Revision: 0
# Processed by: cddbd v1.5.1PL0 Copyright (c) Steve Scherf et al.
# Submitted via: CDex 1.40Release
#
DISCID=6604b208
DTITLE=Varios - Maestros del Blues
DYEAR=1900
DGENRE=Blues
TTITLE0=I'm your Hoochie Man (Muddy Waters)
TTITLE1=Under the Table (Jimi Hendrix)
TTITLE2=Going Home (Buddy Guy)
TTITLE3=Recesion Blues (B. B. King)
TTITLE4=Hi Heel Sneakers (Little Tommy Tucker)
TTITLE5=Don't Start Me Talking (Sonny Boy Williamson)
TTITLE6=Louisiana Blues (Muddy Waters)
TTITLE7=Sal de mi Vida (Los Solitarios)
EXTD=ID3G: 0
EXTT0=
EXTT1=
EXTT2=
EXTT3=
EXTT4=
EXTT5=
EXTT6=
EXTT7=
PLAYORDER=
